<mxfile host="app.diagrams.net" modified="2024-06-17T11:38:05.510Z" agent="Mozilla/5.0 (Windows NT 10.0; Win64; x64) AppleWebKit/537.36 (KHTML, like Gecko) Chrome/125.0.0.0 Safari/537.36" etag="fjAoJ0LiogF5qipp7aNO" version="24.5.4" type="device">
  <diagram name="Page-1" id="0kNdZ1vcx3iw2CvmXote">
    <mxGraphModel dx="954" dy="592" grid="1" gridSize="10" guides="1" tooltips="1" connect="1" arrows="1" fold="1" page="1" pageScale="1" pageWidth="827" pageHeight="1169" math="0" shadow="0">
      <root>
        <mxCell id="0" />
        <mxCell id="1" parent="0" />
        <mxCell id="TNDHSA0PCWtQt0OYh67u-2" value="&lt;div&gt;&lt;br&gt;&lt;/div&gt;&lt;div&gt;&lt;br&gt;&lt;/div&gt;&lt;div&gt;&lt;br&gt;&lt;/div&gt;&lt;div&gt;&lt;br&gt;&lt;/div&gt;&lt;div&gt;&lt;br&gt;&lt;/div&gt;LSB Specification" style="rounded=0;whiteSpace=wrap;html=1;" parent="1" vertex="1">
          <mxGeometry x="180" y="20" width="210" height="120" as="geometry" />
        </mxCell>
        <mxCell id="TNDHSA0PCWtQt0OYh67u-1" value="Module1" style="rounded=0;whiteSpace=wrap;html=1;fillColor=#008a00;strokeColor=#005700;fontColor=#ffffff;" parent="1" vertex="1">
          <mxGeometry x="180" y="20" width="100" height="50" as="geometry" />
        </mxCell>
        <mxCell id="TNDHSA0PCWtQt0OYh67u-7" value="Module2..." style="rounded=0;whiteSpace=wrap;html=1;fillColor=#008a00;strokeColor=#005700;fontColor=#ffffff;" parent="1" vertex="1">
          <mxGeometry x="280" y="20" width="100" height="50" as="geometry" />
        </mxCell>
        <mxCell id="TNDHSA0PCWtQt0OYh67u-12" value="" style="rounded=0;whiteSpace=wrap;html=1;fillColor=#e3c800;fontColor=#000000;strokeColor=#B09500;" parent="1" vertex="1">
          <mxGeometry y="160" width="640" height="260" as="geometry" />
        </mxCell>
        <mxCell id="TNDHSA0PCWtQt0OYh67u-8" value="Specification" style="whiteSpace=wrap;html=1;fillColor=#008a00;strokeColor=#005700;fontColor=#ffffff;rounded=0;" parent="1" vertex="1">
          <mxGeometry x="240" y="190" width="120" height="60" as="geometry" />
        </mxCell>
        <mxCell id="TNDHSA0PCWtQt0OYh67u-10" value="Runtime Enviroment" style="whiteSpace=wrap;html=1;fillColor=#008a00;strokeColor=#005700;fontColor=#ffffff;rounded=0;" parent="1" vertex="1">
          <mxGeometry x="240" y="260" width="120" height="60" as="geometry" />
        </mxCell>
        <mxCell id="TNDHSA0PCWtQt0OYh67u-6" value="" style="edgeStyle=orthogonalEdgeStyle;rounded=0;orthogonalLoop=1;jettySize=auto;html=1;" parent="1" source="TNDHSA0PCWtQt0OYh67u-3" target="TNDHSA0PCWtQt0OYh67u-5" edge="1">
          <mxGeometry relative="1" as="geometry" />
        </mxCell>
        <mxCell id="TNDHSA0PCWtQt0OYh67u-19" value="" style="edgeStyle=orthogonalEdgeStyle;rounded=0;orthogonalLoop=1;jettySize=auto;html=1;" parent="1" source="TNDHSA0PCWtQt0OYh67u-3" target="TNDHSA0PCWtQt0OYh67u-18" edge="1">
          <mxGeometry relative="1" as="geometry" />
        </mxCell>
        <mxCell id="TNDHSA0PCWtQt0OYh67u-21" value="" style="edgeStyle=orthogonalEdgeStyle;rounded=0;orthogonalLoop=1;jettySize=auto;html=1;" parent="1" source="TNDHSA0PCWtQt0OYh67u-3" target="TNDHSA0PCWtQt0OYh67u-20" edge="1">
          <mxGeometry relative="1" as="geometry" />
        </mxCell>
        <mxCell id="TNDHSA0PCWtQt0OYh67u-26" value="" style="edgeStyle=orthogonalEdgeStyle;rounded=0;orthogonalLoop=1;jettySize=auto;html=1;" parent="1" source="TNDHSA0PCWtQt0OYh67u-3" target="TNDHSA0PCWtQt0OYh67u-23" edge="1">
          <mxGeometry relative="1" as="geometry" />
        </mxCell>
        <mxCell id="TNDHSA0PCWtQt0OYh67u-28" style="edgeStyle=orthogonalEdgeStyle;rounded=0;orthogonalLoop=1;jettySize=auto;html=1;" parent="1" source="TNDHSA0PCWtQt0OYh67u-5" target="TNDHSA0PCWtQt0OYh67u-22" edge="1">
          <mxGeometry relative="1" as="geometry" />
        </mxCell>
        <mxCell id="TNDHSA0PCWtQt0OYh67u-29" style="edgeStyle=orthogonalEdgeStyle;rounded=0;orthogonalLoop=1;jettySize=auto;html=1;" parent="1" source="TNDHSA0PCWtQt0OYh67u-5" target="TNDHSA0PCWtQt0OYh67u-20" edge="1">
          <mxGeometry relative="1" as="geometry" />
        </mxCell>
        <mxCell id="TNDHSA0PCWtQt0OYh67u-3" value="Each module has" style="whiteSpace=wrap;html=1;fillColor=#008a00;strokeColor=#005700;fontColor=#ffffff;rounded=0;" parent="1" vertex="1">
          <mxGeometry y="190" width="120" height="60" as="geometry" />
        </mxCell>
        <mxCell id="TNDHSA0PCWtQt0OYh67u-9" value="" style="edgeStyle=orthogonalEdgeStyle;rounded=0;orthogonalLoop=1;jettySize=auto;html=1;" parent="1" source="TNDHSA0PCWtQt0OYh67u-3" target="TNDHSA0PCWtQt0OYh67u-8" edge="1">
          <mxGeometry relative="1" as="geometry" />
        </mxCell>
        <mxCell id="TNDHSA0PCWtQt0OYh67u-11" value="" style="edgeStyle=orthogonalEdgeStyle;rounded=0;orthogonalLoop=1;jettySize=auto;html=1;" parent="1" source="TNDHSA0PCWtQt0OYh67u-3" target="TNDHSA0PCWtQt0OYh67u-10" edge="1">
          <mxGeometry relative="1" as="geometry" />
        </mxCell>
        <mxCell id="TNDHSA0PCWtQt0OYh67u-14" value="LSB=Linux Standard Base" style="text;html=1;align=center;verticalAlign=middle;whiteSpace=wrap;rounded=0;" parent="1" vertex="1">
          <mxGeometry x="580" y="40" width="210" height="60" as="geometry" />
        </mxCell>
        <mxCell id="TNDHSA0PCWtQt0OYh67u-13" value="An application conforms to a module" style="text;html=1;align=center;verticalAlign=middle;whiteSpace=wrap;rounded=0;" parent="1" vertex="1">
          <mxGeometry x="360" y="150" width="250" height="30" as="geometry" />
        </mxCell>
        <mxCell id="TNDHSA0PCWtQt0OYh67u-15" value="LSB Core&lt;div&gt;(Mandatory)&lt;/div&gt;" style="rounded=0;whiteSpace=wrap;html=1;fillColor=#1ba1e2;fontColor=#ffffff;strokeColor=#006EAF;" parent="1" vertex="1">
          <mxGeometry y="260" width="120" height="60" as="geometry" />
        </mxCell>
        <mxCell id="TNDHSA0PCWtQt0OYh67u-25" style="edgeStyle=orthogonalEdgeStyle;rounded=0;orthogonalLoop=1;jettySize=auto;html=1;exitX=0.25;exitY=1;exitDx=0;exitDy=0;" parent="1" source="TNDHSA0PCWtQt0OYh67u-18" target="TNDHSA0PCWtQt0OYh67u-12" edge="1">
          <mxGeometry relative="1" as="geometry" />
        </mxCell>
        <mxCell id="TNDHSA0PCWtQt0OYh67u-18" value="LSB Desktop" style="rounded=0;whiteSpace=wrap;html=1;fillColor=#1ba1e2;fontColor=#ffffff;strokeColor=#006EAF;" parent="1" vertex="1">
          <mxGeometry y="320" width="120" height="60" as="geometry" />
        </mxCell>
        <mxCell id="TNDHSA0PCWtQt0OYh67u-22" value="LSB Imaging" style="rounded=0;whiteSpace=wrap;html=1;fillColor=#1ba1e2;fontColor=#ffffff;strokeColor=#006EAF;" parent="1" vertex="1">
          <mxGeometry x="120" y="260" width="120" height="60" as="geometry" />
        </mxCell>
        <mxCell id="TNDHSA0PCWtQt0OYh67u-20" value="LSB Languages" style="rounded=0;whiteSpace=wrap;html=1;fillColor=#1ba1e2;fontColor=#ffffff;strokeColor=#006EAF;" parent="1" vertex="1">
          <mxGeometry x="230" y="320" width="120" height="60" as="geometry" />
        </mxCell>
        <mxCell id="TNDHSA0PCWtQt0OYh67u-23" value="LSB Trial Use" style="rounded=0;whiteSpace=wrap;html=1;fillColor=#1ba1e2;fontColor=#ffffff;strokeColor=#006EAF;" parent="1" vertex="1">
          <mxGeometry x="120" y="320" width="120" height="60" as="geometry" />
        </mxCell>
        <mxCell id="TNDHSA0PCWtQt0OYh67u-17" value="" style="edgeStyle=orthogonalEdgeStyle;rounded=0;orthogonalLoop=1;jettySize=auto;html=1;" parent="1" source="TNDHSA0PCWtQt0OYh67u-3" target="TNDHSA0PCWtQt0OYh67u-15" edge="1">
          <mxGeometry relative="1" as="geometry" />
        </mxCell>
        <mxCell id="TNDHSA0PCWtQt0OYh67u-30" value="" style="edgeStyle=orthogonalEdgeStyle;rounded=0;orthogonalLoop=1;jettySize=auto;html=1;" parent="1" source="TNDHSA0PCWtQt0OYh67u-3" target="TNDHSA0PCWtQt0OYh67u-5" edge="1">
          <mxGeometry relative="1" as="geometry">
            <mxPoint x="360" y="210" as="sourcePoint" />
            <mxPoint x="430" y="340" as="targetPoint" />
          </mxGeometry>
        </mxCell>
        <mxCell id="TNDHSA0PCWtQt0OYh67u-31" value="" style="edgeStyle=orthogonalEdgeStyle;rounded=0;orthogonalLoop=1;jettySize=auto;html=1;" parent="1" source="TNDHSA0PCWtQt0OYh67u-3" target="TNDHSA0PCWtQt0OYh67u-5" edge="1">
          <mxGeometry relative="1" as="geometry">
            <mxPoint x="360" y="210" as="sourcePoint" />
            <mxPoint x="580" y="280" as="targetPoint" />
          </mxGeometry>
        </mxCell>
        <mxCell id="TNDHSA0PCWtQt0OYh67u-5" value="Libraries" style="whiteSpace=wrap;html=1;fillColor=#008a00;strokeColor=#005700;fontColor=#ffffff;rounded=0;" parent="1" vertex="1">
          <mxGeometry x="120" y="190" width="120" height="60" as="geometry" />
        </mxCell>
        <mxCell id="TNDHSA0PCWtQt0OYh67u-4" value="" style="edgeStyle=orthogonalEdgeStyle;rounded=0;orthogonalLoop=1;jettySize=auto;html=1;" parent="1" source="TNDHSA0PCWtQt0OYh67u-1" target="TNDHSA0PCWtQt0OYh67u-3" edge="1">
          <mxGeometry relative="1" as="geometry" />
        </mxCell>
        <mxCell id="TNDHSA0PCWtQt0OYh67u-32" value="&lt;font style=&quot;font-size: 21px;&quot;&gt;Application&lt;/font&gt;" style="text;html=1;align=center;verticalAlign=middle;whiteSpace=wrap;rounded=0;" parent="1" vertex="1">
          <mxGeometry x="560" y="390" width="60" height="30" as="geometry" />
        </mxCell>
        <mxCell id="TNDHSA0PCWtQt0OYh67u-33" value="" style="rounded=0;whiteSpace=wrap;html=1;" parent="1" vertex="1">
          <mxGeometry x="190" y="440" width="250" height="90" as="geometry" />
        </mxCell>
        <mxCell id="TNDHSA0PCWtQt0OYh67u-34" value="Common Part" style="rounded=0;whiteSpace=wrap;html=1;" parent="1" vertex="1">
          <mxGeometry x="200" y="470" width="80" height="45" as="geometry" />
        </mxCell>
        <mxCell id="w34T4liyk8dycVCtD4Mm-2" value="Every Module has" style="swimlane;whiteSpace=wrap;html=1;fillColor=#d5e8d4;strokeColor=#82b366;" vertex="1" parent="1">
          <mxGeometry x="385" y="190" width="205" height="200" as="geometry" />
        </mxCell>
        <mxCell id="w34T4liyk8dycVCtD4Mm-3" value="Common Part:&lt;div&gt;Architecture- Vary on Process Arch.&lt;br&gt;&lt;div&gt;&lt;br&gt;&lt;/div&gt;&lt;div&gt;&lt;br&gt;&lt;/div&gt;&lt;/div&gt;" style="text;html=1;align=center;verticalAlign=middle;resizable=0;points=[];autosize=1;strokeColor=none;fillColor=none;" vertex="1" parent="w34T4liyk8dycVCtD4Mm-2">
          <mxGeometry x="-5" y="25" width="210" height="70" as="geometry" />
        </mxCell>
        <mxCell id="w34T4liyk8dycVCtD4Mm-4" value="" style="rounded=0;whiteSpace=wrap;html=1;fillColor=#dae8fc;strokeColor=#6c8ebf;" vertex="1" parent="w34T4liyk8dycVCtD4Mm-2">
          <mxGeometry x="10" y="70" width="180" height="120" as="geometry" />
        </mxCell>
        <mxCell id="w34T4liyk8dycVCtD4Mm-5" value="APIs" style="rounded=1;whiteSpace=wrap;html=1;" vertex="1" parent="w34T4liyk8dycVCtD4Mm-2">
          <mxGeometry x="20" y="80" width="70" height="40" as="geometry" />
        </mxCell>
        <mxCell id="w34T4liyk8dycVCtD4Mm-6" value="ABIs" style="rounded=1;whiteSpace=wrap;html=1;" vertex="1" parent="w34T4liyk8dycVCtD4Mm-2">
          <mxGeometry x="20" y="140" width="70" height="40" as="geometry" />
        </mxCell>
        <mxCell id="w34T4liyk8dycVCtD4Mm-7" value="Application&lt;div&gt;Binary&lt;/div&gt;&lt;div&gt;Interface&lt;/div&gt;" style="ellipse;whiteSpace=wrap;html=1;" vertex="1" parent="w34T4liyk8dycVCtD4Mm-2">
          <mxGeometry x="105" y="135" width="85" height="50" as="geometry" />
        </mxCell>
        <mxCell id="w34T4liyk8dycVCtD4Mm-8" value="Architecture&lt;div&gt;Part&lt;/div&gt;" style="rounded=0;whiteSpace=wrap;html=1;" vertex="1" parent="1">
          <mxGeometry x="290" y="470" width="80" height="48.75" as="geometry" />
        </mxCell>
      </root>
    </mxGraphModel>
  </diagram>
</mxfile>
